<?xml version="1.0" encoding="UTF-8"?>
<svg xmlns="http://www.w3.org/2000/svg" xmlns:xlink="http://www.w3.org/1999/xlink" width="120px" height="120px" viewBox="0 0 120 120" version="1.1">
<g id="surface1">
<path style="fill-rule:evenodd;fill:rgb(100%,100%,100%);fill-opacity:1;stroke-width:1.5;stroke-linecap:round;stroke-linejoin:round;stroke:rgb(0%,0%,0%);stroke-opacity:1;stroke-miterlimit:4;" d="M 22.000488 9.999316 C 32.500488 10.999805 38.500488 18.000293 37.999512 39.000293 L 15 39.000293 C 15 30.000293 25.000488 32.499316 22.999512 18.000293 " transform="matrix(2.666667,0,0,2.666667,0,0.8)"/>
<path style="fill-rule:evenodd;fill:rgb(100%,100%,100%);fill-opacity:1;stroke-width:1.5;stroke-linecap:round;stroke-linejoin:round;stroke:rgb(0%,0%,0%);stroke-opacity:1;stroke-miterlimit:4;" d="M 24 18.000293 C 24.379395 20.909473 18.449707 25.369922 16.000488 27.000293 C 13.000488 28.999805 13.180664 31.340625 10.999512 30.999316 C 9.958008 30.060352 12.410156 27.959766 10.999512 27.999316 C 10.000488 27.999316 11.189941 29.229785 10.000488 30.000293 C 9 30.000293 5.99707 30.999316 6 25.999805 C 6 24.000293 12 13.999805 12 13.999805 C 12 13.999805 13.889648 12.099902 13.999512 10.500293 C 13.27002 9.505664 13.5 8.499316 13.5 7.500293 C 14.500488 6.499805 16.5 9.999316 16.5 9.999316 L 18.499512 9.999316 C 18.499512 9.999316 19.280273 8.008594 21 6.999316 C 22.000488 6.999316 22.000488 9.999316 22.000488 9.999316 " transform="matrix(2.666667,0,0,2.666667,0,0.8)"/>
<path style="fill-rule:evenodd;fill:rgb(0%,0%,0%);fill-opacity:1;stroke-width:1.5;stroke-linecap:round;stroke-linejoin:round;stroke:rgb(0%,0%,0%);stroke-opacity:1;stroke-miterlimit:4;" d="M 9.499512 25.500293 C 9.499512 25.775684 9.276855 25.999805 9 25.999805 C 8.723145 25.999805 8.500488 25.775684 8.500488 25.500293 C 8.500488 25.223437 8.723145 24.999316 9 24.999316 C 9.276855 24.999316 9.499512 25.223437 9.499512 25.500293 Z M 9.499512 25.500293 " transform="matrix(2.666667,0,0,2.666667,0,0.8)"/>
<path style="fill-rule:evenodd;fill:rgb(0%,0%,0%);fill-opacity:1;stroke-width:1.5;stroke-linecap:round;stroke-linejoin:round;stroke:rgb(0%,0%,0%);stroke-opacity:1;stroke-miterlimit:4;" d="M 14.999815 15.500445 C 14.999701 16.329349 14.776118 16.99972 14.500484 16.999861 C 14.223581 17.000734 13.999453 16.328364 13.999567 15.499461 C 14.000414 14.671825 14.223264 14.000186 14.500167 13.999312 C 14.776534 14.00044 14.999929 14.671541 14.999815 15.500445 Z M 14.999815 15.500445 " transform="matrix(2.309333,1.333333,-1.333333,2.309333,25.848,-12.994666)"/>
</g>
</svg>
