<?xml version="1.0" encoding="UTF-8"?>
<svg xmlns="http://www.w3.org/2000/svg" xmlns:xlink="http://www.w3.org/1999/xlink" width="120px" height="120px" viewBox="0 0 120 120" version="1.1">
<g id="surface1">
<path style="fill-rule:evenodd;fill:rgb(0%,0%,0%);fill-opacity:1;stroke-width:1.5;stroke-linecap:butt;stroke-linejoin:round;stroke:rgb(0%,0%,0%);stroke-opacity:1;stroke-miterlimit:4;" d="M 9 39.000293 L 36 39.000293 L 36 36.000293 L 9 36.000293 Z M 9 39.000293 " transform="matrix(2.666667,0,0,2.666667,0,0.8)"/>
<path style="fill-rule:evenodd;fill:rgb(0%,0%,0%);fill-opacity:1;stroke-width:1.5;stroke-linecap:butt;stroke-linejoin:round;stroke:rgb(0%,0%,0%);stroke-opacity:1;stroke-miterlimit:4;" d="M 12.499512 31.999805 L 13.999512 29.499316 L 31.000488 29.499316 L 32.500488 31.999805 Z M 12.499512 31.999805 " transform="matrix(2.666667,0,0,2.666667,0,0.8)"/>
<path style="fill-rule:evenodd;fill:rgb(0%,0%,0%);fill-opacity:1;stroke-width:1.5;stroke-linecap:butt;stroke-linejoin:round;stroke:rgb(0%,0%,0%);stroke-opacity:1;stroke-miterlimit:4;" d="M 12 36.000293 L 12 31.999805 L 33 31.999805 L 33 36.000293 Z M 12 36.000293 " transform="matrix(2.666667,0,0,2.666667,0,0.8)"/>
<path style="fill-rule:evenodd;fill:rgb(0%,0%,0%);fill-opacity:1;stroke-width:1.5;stroke-linecap:butt;stroke-linejoin:miter;stroke:rgb(0%,0%,0%);stroke-opacity:1;stroke-miterlimit:4;" d="M 13.999512 29.499316 L 13.999512 16.500293 L 31.000488 16.500293 L 31.000488 29.499316 Z M 13.999512 29.499316 " transform="matrix(2.666667,0,0,2.666667,0,0.8)"/>
<path style="fill-rule:evenodd;fill:rgb(0%,0%,0%);fill-opacity:1;stroke-width:1.5;stroke-linecap:butt;stroke-linejoin:round;stroke:rgb(0%,0%,0%);stroke-opacity:1;stroke-miterlimit:4;" d="M 13.999512 16.500293 L 10.999512 13.999805 L 34.000488 13.999805 L 31.000488 16.500293 Z M 13.999512 16.500293 " transform="matrix(2.666667,0,0,2.666667,0,0.8)"/>
<path style="fill-rule:evenodd;fill:rgb(0%,0%,0%);fill-opacity:1;stroke-width:1.5;stroke-linecap:butt;stroke-linejoin:round;stroke:rgb(0%,0%,0%);stroke-opacity:1;stroke-miterlimit:4;" d="M 10.999512 13.999805 L 10.999512 9.000293 L 15 9.000293 L 15 10.999805 L 19.999512 10.999805 L 19.999512 9.000293 L 25.000488 9.000293 L 25.000488 10.999805 L 30 10.999805 L 30 9.000293 L 34.000488 9.000293 L 34.000488 13.999805 Z M 10.999512 13.999805 " transform="matrix(2.666667,0,0,2.666667,0,0.8)"/>
<path style="fill:none;stroke-width:1;stroke-linecap:round;stroke-linejoin:miter;stroke:rgb(100%,100%,100%);stroke-opacity:1;stroke-miterlimit:4;" d="M 12 35.499316 L 33 35.499316 " transform="matrix(2.666667,0,0,2.666667,0,0.8)"/>
<path style="fill:none;stroke-width:1;stroke-linecap:round;stroke-linejoin:miter;stroke:rgb(100%,100%,100%);stroke-opacity:1;stroke-miterlimit:4;" d="M 13.000488 31.500293 L 31.999512 31.500293 " transform="matrix(2.666667,0,0,2.666667,0,0.8)"/>
<path style="fill:none;stroke-width:1;stroke-linecap:round;stroke-linejoin:miter;stroke:rgb(100%,100%,100%);stroke-opacity:1;stroke-miterlimit:4;" d="M 13.999512 29.499316 L 31.000488 29.499316 " transform="matrix(2.666667,0,0,2.666667,0,0.8)"/>
<path style="fill:none;stroke-width:1;stroke-linecap:round;stroke-linejoin:miter;stroke:rgb(100%,100%,100%);stroke-opacity:1;stroke-miterlimit:4;" d="M 13.999512 16.500293 L 31.000488 16.500293 " transform="matrix(2.666667,0,0,2.666667,0,0.8)"/>
<path style="fill:none;stroke-width:1;stroke-linecap:round;stroke-linejoin:miter;stroke:rgb(100%,100%,100%);stroke-opacity:1;stroke-miterlimit:4;" d="M 10.999512 13.999805 L 34.000488 13.999805 " transform="matrix(2.666667,0,0,2.666667,0,0.8)"/>
</g>
</svg>
