<?xml version="1.0" encoding="UTF-8"?>
<svg xmlns="http://www.w3.org/2000/svg" xmlns:xlink="http://www.w3.org/1999/xlink" width="120px" height="120px" viewBox="0 0 120 120" version="1.1">
<g id="surface1">
<path style="fill-rule:nonzero;fill:rgb(0%,0%,0%);fill-opacity:1;stroke-width:1.5;stroke-linecap:butt;stroke-linejoin:round;stroke:rgb(0%,0%,0%);stroke-opacity:1;stroke-miterlimit:4;" d="M 9 25.999512 C 17.500488 24.499512 30 24.499512 36 25.999512 L 38.500488 13.5 L 31.000488 25.000488 L 30.700195 10.899902 L 25.5 24.499512 L 22.5 10.000488 L 19.5 24.499512 L 14.299805 10.899902 L 13.999512 25.000488 L 6.499512 13.5 Z M 9 25.999512 " transform="matrix(2.666667,0,0,2.666667,0,0)"/>
<path style="fill-rule:nonzero;fill:rgb(0%,0%,0%);fill-opacity:1;stroke-width:1.5;stroke-linecap:round;stroke-linejoin:round;stroke:rgb(0%,0%,0%);stroke-opacity:1;stroke-miterlimit:4;" d="M 9 25.999512 C 9 28.000488 10.5 28.000488 11.500488 30 C 12.499512 31.5 12.499512 31.000488 12 33.499512 C 10.5 34.5 10.999512 36 10.999512 36 C 9.499512 37.5 10.999512 38.500488 10.999512 38.500488 C 17.500488 39.499512 27.499512 39.499512 34.000488 38.500488 C 34.000488 38.500488 35.500488 37.5 34.000488 36 C 34.000488 36 34.5 34.5 33 33.499512 C 32.500488 31.000488 32.500488 31.5 33.499512 30 C 34.5 28.000488 36 28.000488 36 25.999512 C 27.499512 24.499512 17.500488 24.499512 9 25.999512 Z M 9 25.999512 " transform="matrix(2.666667,0,0,2.666667,0,0)"/>
<path style="fill-rule:nonzero;fill:rgb(0%,0%,0%);fill-opacity:1;stroke-width:1.5;stroke-linecap:round;stroke-linejoin:round;stroke:rgb(0%,0%,0%);stroke-opacity:1;stroke-miterlimit:4;" d="M 11.500488 30 C 15 28.999512 30 28.999512 33.499512 30 " transform="matrix(2.666667,0,0,2.666667,0,0)"/>
<path style="fill-rule:nonzero;fill:rgb(0%,0%,0%);fill-opacity:1;stroke-width:1.5;stroke-linecap:round;stroke-linejoin:round;stroke:rgb(0%,0%,0%);stroke-opacity:1;stroke-miterlimit:4;" d="M 12 33.499512 C 18 32.500488 27 32.500488 33 33.499512 " transform="matrix(2.666667,0,0,2.666667,0,0)"/>
<path style="fill-rule:nonzero;fill:rgb(0%,0%,0%);fill-opacity:1;stroke-width:1.5;stroke-linecap:round;stroke-linejoin:round;stroke:rgb(0%,0%,0%);stroke-opacity:1;stroke-miterlimit:4;" d="M 7.999512 12 C 7.999512 10.895508 7.104492 10.000488 6 10.000488 C 4.895508 10.000488 4.000488 10.895508 4.000488 12 C 4.000488 13.104492 4.895508 13.999512 6 13.999512 C 7.104492 13.999512 7.999512 13.104492 7.999512 12 Z M 7.999512 12 " transform="matrix(2.666667,0,0,2.666667,0,0)"/>
<path style="fill-rule:nonzero;fill:rgb(0%,0%,0%);fill-opacity:1;stroke-width:1.5;stroke-linecap:round;stroke-linejoin:round;stroke:rgb(0%,0%,0%);stroke-opacity:1;stroke-miterlimit:4;" d="M 16.000488 9 C 16.000488 7.895508 15.104004 7.000488 13.999512 7.000488 C 12.89502 7.000488 12 7.895508 12 9 C 12 10.104492 12.89502 10.999512 13.999512 10.999512 C 15.104004 10.999512 16.000488 10.104492 16.000488 9 Z M 16.000488 9 " transform="matrix(2.666667,0,0,2.666667,0,0)"/>
<path style="fill-rule:nonzero;fill:rgb(0%,0%,0%);fill-opacity:1;stroke-width:1.5;stroke-linecap:round;stroke-linejoin:round;stroke:rgb(0%,0%,0%);stroke-opacity:1;stroke-miterlimit:4;" d="M 24.499512 7.999512 C 24.499512 6.89502 23.604492 6 22.5 6 C 21.395508 6 20.500488 6.89502 20.500488 7.999512 C 20.500488 9.104004 21.395508 10.000488 22.5 10.000488 C 23.604492 10.000488 24.499512 9.104004 24.499512 7.999512 Z M 24.499512 7.999512 " transform="matrix(2.666667,0,0,2.666667,0,0)"/>
<path style="fill-rule:nonzero;fill:rgb(0%,0%,0%);fill-opacity:1;stroke-width:1.5;stroke-linecap:round;stroke-linejoin:round;stroke:rgb(0%,0%,0%);stroke-opacity:1;stroke-miterlimit:4;" d="M 33 9 C 33 7.895508 32.10498 7.000488 31.000488 7.000488 C 29.895996 7.000488 28.999512 7.895508 28.999512 9 C 28.999512 10.104492 29.895996 10.999512 31.000488 10.999512 C 32.10498 10.999512 33 10.104492 33 9 Z M 33 9 " transform="matrix(2.666667,0,0,2.666667,0,0)"/>
<path style="fill-rule:nonzero;fill:rgb(0%,0%,0%);fill-opacity:1;stroke-width:1.5;stroke-linecap:round;stroke-linejoin:round;stroke:rgb(0%,0%,0%);stroke-opacity:1;stroke-miterlimit:4;" d="M 40.999512 12 C 40.999512 10.895508 40.104492 10.000488 39 10.000488 C 37.895508 10.000488 37.000488 10.895508 37.000488 12 C 37.000488 13.104492 37.895508 13.999512 39 13.999512 C 40.104492 13.999512 40.999512 13.104492 40.999512 12 Z M 40.999512 12 " transform="matrix(2.666667,0,0,2.666667,0,0)"/>
<path style="fill:none;stroke-width:1.5;stroke-linecap:butt;stroke-linejoin:round;stroke:rgb(0%,0%,0%);stroke-opacity:1;stroke-miterlimit:4;" d="M 10.999512 38.500488 C 18.448242 41.090332 26.551758 41.090332 34.000488 38.500488 " transform="matrix(2.666667,0,0,2.666667,0,0)"/>
<path style="fill:none;stroke-width:1.5;stroke-linecap:round;stroke-linejoin:round;stroke:rgb(100%,100%,100%);stroke-opacity:1;stroke-miterlimit:4;" d="M 10.999512 28.999512 C 18.448242 26.409668 26.551758 26.409668 34.000488 28.999512 " transform="matrix(2.666667,0,0,2.666667,0,0)"/>
<path style="fill:none;stroke-width:1.5;stroke-linecap:round;stroke-linejoin:round;stroke:rgb(100%,100%,100%);stroke-opacity:1;stroke-miterlimit:4;" d="M 12.499512 31.5 L 32.500488 31.5 " transform="matrix(2.666667,0,0,2.666667,0,0)"/>
<path style="fill:none;stroke-width:1.5;stroke-linecap:round;stroke-linejoin:round;stroke:rgb(100%,100%,100%);stroke-opacity:1;stroke-miterlimit:4;" d="M 11.500488 34.5 C 18.643066 36.864258 26.356934 36.864258 33.499512 34.5 " transform="matrix(2.666667,0,0,2.666667,0,0)"/>
<path style="fill:none;stroke-width:1.5;stroke-linecap:round;stroke-linejoin:round;stroke:rgb(100%,100%,100%);stroke-opacity:1;stroke-miterlimit:4;" d="M 10.5 37.5 C 18.250488 40.328613 26.749512 40.328613 34.5 37.5 " transform="matrix(2.666667,0,0,2.666667,0,0)"/>
</g>
</svg>
