<?xml version="1.0" encoding="UTF-8"?>
<svg xmlns="http://www.w3.org/2000/svg" xmlns:xlink="http://www.w3.org/1999/xlink" width="120px" height="120px" viewBox="0 0 120 120" version="1.1">
<g id="surface1">
<path style="fill-rule:evenodd;fill:rgb(0%,0%,0%);fill-opacity:1;stroke-width:1.5;stroke-linecap:butt;stroke-linejoin:round;stroke:rgb(0%,0%,0%);stroke-opacity:1;stroke-miterlimit:4;" d="M 9 36.000586 C 12.389648 35.029395 19.110352 36.429785 22.5 33.999609 C 25.889648 36.429785 32.610352 35.029395 36 36.000586 C 36 36.000586 37.649414 36.539648 39 38.000098 C 38.320312 38.969824 37.350586 38.990332 36 38.499609 C 32.610352 37.529883 25.889648 38.95957 22.5 37.500586 C 19.110352 38.95957 12.389648 37.529883 9 38.499609 C 7.649414 38.990332 6.679688 38.969824 6 38.000098 C 7.350586 36.539648 9 36.000586 9 36.000586 Z M 9 36.000586 " transform="matrix(2.666667,0,0,2.666667,0,1.6)"/>
<path style="fill-rule:evenodd;fill:rgb(0%,0%,0%);fill-opacity:1;stroke-width:1.5;stroke-linecap:butt;stroke-linejoin:round;stroke:rgb(0%,0%,0%);stroke-opacity:1;stroke-miterlimit:4;" d="M 15 32.000098 C 17.500488 34.500586 27.499512 34.500586 30 32.000098 C 30.499512 30.500098 30 30.000586 30 30.000586 C 30 27.500098 27.499512 26.000098 27.499512 26.000098 C 33 24.500098 33.499512 14.499609 22.5 10.500586 C 11.500488 14.499609 12 24.500098 17.500488 26.000098 C 17.500488 26.000098 15 27.500098 15 30.000586 C 15 30.000586 14.500488 30.500098 15 32.000098 Z M 15 32.000098 " transform="matrix(2.666667,0,0,2.666667,0,1.6)"/>
<path style="fill-rule:evenodd;fill:rgb(0%,0%,0%);fill-opacity:1;stroke-width:1.5;stroke-linecap:butt;stroke-linejoin:round;stroke:rgb(0%,0%,0%);stroke-opacity:1;stroke-miterlimit:4;" d="M 25.000488 8.000098 C 25.000488 9.37998 23.881348 10.500586 22.5 10.500586 C 21.118652 10.500586 19.999512 9.37998 19.999512 8.000098 C 19.999512 6.61875 21.118652 5.499609 22.5 5.499609 C 23.881348 5.499609 25.000488 6.61875 25.000488 8.000098 Z M 25.000488 8.000098 " transform="matrix(2.666667,0,0,2.666667,0,1.6)"/>
<path style="fill:none;stroke-width:1.5;stroke-linecap:round;stroke-linejoin:miter;stroke:rgb(100%,100%,100%);stroke-opacity:1;stroke-miterlimit:4;" d="M 17.500488 26.000098 L 27.499512 26.000098 M 15 30.000586 L 30 30.000586 M 22.5 15.500098 L 22.5 20.499609 M 19.999512 18.000586 L 25.000488 18.000586 " transform="matrix(2.666667,0,0,2.666667,0,1.6)"/>
</g>
</svg>
