<?xml version="1.0" encoding="UTF-8"?>
<svg xmlns="http://www.w3.org/2000/svg" xmlns:xlink="http://www.w3.org/1999/xlink" width="120px" height="120px" viewBox="0 0 120 120" version="1.1">
<g id="surface1">
<path style="fill-rule:nonzero;fill:rgb(0%,0%,0%);fill-opacity:1;stroke-width:1.5;stroke-linecap:round;stroke-linejoin:miter;stroke:rgb(0%,0%,0%);stroke-opacity:1;stroke-miterlimit:4;" d="M 22.5 9 C 20.289551 9 18.499512 10.790039 18.499512 13.000488 C 18.499512 13.889648 18.789551 14.709961 19.280273 15.379395 C 17.330566 16.5 16.000488 18.590332 16.000488 21 C 16.000488 23.030273 16.939453 24.839355 18.410156 26.030273 C 15.410156 27.089355 10.999512 31.580566 10.999512 39.499512 L 34.000488 39.499512 C 34.000488 31.580566 29.589844 27.089355 26.589844 26.030273 C 28.060547 24.839355 28.999512 23.030273 28.999512 21 C 28.999512 18.590332 27.669434 16.5 25.719727 15.379395 C 26.210449 14.709961 26.500488 13.889648 26.500488 13.000488 C 26.500488 10.790039 24.710449 9 22.5 9 Z M 22.5 9 " transform="matrix(2.666667,0,0,2.666667,0,0)"/>
</g>
</svg>
